/* XPM */
static char * reset_xpm[] = {
"48 48 3 1",
" 	c None",
".	c #005A9C",
"+	c #FFFFFF",
"................................................",
"................................................",
"................................................",
"................................................",
"................................................",
"................................................",
"................................................",
"................................................",
"................................................",
"................................................",
"................................................",
"................................................",
"................................................",
"................................................",
"................................................",
"................................................",
"................................................",
"................................................",
"..+++++++..++++++++..+++++++.++++++++.++++++++..",
"..++++++++.++++++++.++++++++.++++++++.++++++++..",
"..++....++.++.......++.......++..........++.....",
"..++....++.++.......++.......++..........++.....",
"..++....++.++.......++.......++..........++.....",
"..++....++.+++++++..+++++++..+++++++.....++.....",
"..+++++++..+++++++...+++++++.+++++++.....++.....",
"..+++++++..++.............++.++..........++.....",
"..++....++.++.............++.++..........++.....",
"..++....++.++.............++.++..........++.....",
"..++....++.++++++++.++++++++.++++++++....++.....",
"..++....++.++++++++.+++++++..++++++++....++.....",
"................................................",
"................................................",
"................................................",
"................................................",
"................................................",
"................................................",
"................................................",
"................................................",
"................................................",
"................................................",
"................................................",
"................................................",
"................................................",
"................................................",
"................................................",
"................................................",
"................................................",
"................................................"};
