/* XPM */
static char * run_xpm[] = {
"48 48 4 1",
" 	c None",
".	c #000000",
"+	c #008C6B",
"@	c #FFFFFF",
"                  ...........                   ",
"              ...................               ",
"            ........+++++++........             ",
"          ......+++++++++++++++......           ",
"         .....+++++++++++++++++++.....          ",
"       .....+++++++++++++++++++++++.....        ",
"      .....+++++++++++++++++++++++++.....       ",
"     ....+++++++++++++++++++++++++++++....      ",
"     ...+++++++++++++++++++++++++++++++...      ",
"    ...+++++++++++++++++++++++++++++++++...     ",
"   ....+++++++++++++++++++++++++++++++++....    ",
"   ...+++++++++++++++++++++++++++++++++++...    ",
"  ...+++++++++++++++++++++++++++++++++++++...   ",
"  ...+++++++++++++++++++++++++++++++++++++...   ",
" ...+++++++++++++++++++++++++++++++++++++++...  ",
" ...+++++++++++++++++++++++++++++++++++++++...  ",
" ..+++++++++++++++++++++++++++++++++++++++++..  ",
" ..++++++++@@@@@@@++@@++++@@+@@++++@@+++++++..  ",
"...++++++++@@@@@@@@+@@++++@@+@@@+++@@+++++++... ",
"...++++++++@@++++@@+@@++++@@+@@@+++@@+++++++... ",
"..+++++++++@@++++@@+@@++++@@+@@@@++@@++++++++.. ",
"..+++++++++@@++++@@+@@++++@@+@@@@++@@++++++++.. ",
"..+++++++++@@++++@@+@@++++@@+@@+@@+@@++++++++.. ",
"..+++++++++@@@@@@@++@@++++@@+@@+@@+@@++++++++.. ",
"..+++++++++@@@@@@@++@@++++@@+@@++@@@@++++++++.. ",
"..+++++++++@@++++@@+@@++++@@+@@++@@@@++++++++.. ",
"..+++++++++@@++++@@+@@++++@@+@@+++@@@++++++++.. ",
"...++++++++@@++++@@+@@@@@@@@+@@+++@@@+++++++... ",
"...++++++++@@++++@@++@@@@@@++@@++++@@+++++++... ",
" ..+++++++++++++++++++++++++++++++++++++++++..  ",
" ..+++++++++++++++++++++++++++++++++++++++++..  ",
" ...+++++++++++++++++++++++++++++++++++++++...  ",
" ...+++++++++++++++++++++++++++++++++++++++...  ",
"  ...+++++++++++++++++++++++++++++++++++++...   ",
"  ...+++++++++++++++++++++++++++++++++++++...   ",
"   ...+++++++++++++++++++++++++++++++++++...    ",
"   ....+++++++++++++++++++++++++++++++++....    ",
"    ...+++++++++++++++++++++++++++++++++...     ",
"     ...+++++++++++++++++++++++++++++++...      ",
"     ....+++++++++++++++++++++++++++++....      ",
"      .....+++++++++++++++++++++++++.....       ",
"       .....+++++++++++++++++++++++.....        ",
"         .....+++++++++++++++++++.....          ",
"          ......+++++++++++++++......           ",
"            ........+++++++........             ",
"              ...................               ",
"                  ...........                   ",
"                                                "};
