/* XPM */
static char * step_xpm[] = {
"48 48 5 1",
" 	c None",
".	c #FFDE08",
"+	c #000000",
"@	c #FFFFFF",
"#	c #080800",
"..........++++++++++++............++++++++++++..",
"...........++++++++++++............++++++++++++.",
"............++++++++++++............++++++++++++",
"+............++++++++++++............+++++++++++",
"++............++++++++++++............++++++++++",
"+++............++++++++++++............+++++++++",
"++++............++++++++++++............++++++++",
"+++++............++++++++++++............+++++++",
"++++++............++++++++++++............++++++",
"+++++++............++++++++++++............+++++",
"++++++++............++++++++++++............++++",
"+++++++++............++++++++++++............+++",
"++++++++++............++++++++++++............++",
"+++++++++++............++++++++++++............+",
"++++++++++++............++++++++++++............",
".++++++++++++++++++++++++++++++++++++++++++++...",
"..+++++++++++++++++++++++++++++++++++++++++++...",
"...++++++++++++++++++++++++++++++++++++++++++...",
"....++++@@@@@@@+@@@@@@@@+@@@@@@@@+@@@@@@@++++...",
"....+++@@@@@@@@+@@@@@@@@+@@@@@@@@+@@@@@@@@+++...",
"....+++@@++++++++++@@++++@@+++++++@@++++@@+++...",
"....+++@@++++++++++@@++++@@+++++++@@++++@@+++...",
"....+++@@++++++++++@@++++@@+++++++@@++++@@+++...",
"....+++@@@@@@@+++++@@++++@@@@@@@++@@++++@@+++...",
"....++++@@@@@@@++++@@++++@@@@@@@++@@@@@@@@++++..",
"....+++++++++@@++++@@++++@@+++++++@@@@@@@++++++.",
"....+++++++++@@++++@@++++@@+++++++@@++++++++++++",
"+...+++++++++@@++++@@++++@@+++++++@@++++++++++++",
"++..+++@@@@@@@@++++@@++++@@@@@@@@+@@++++++++++++",
"+++.+++@@@@@@@+++++@@++++@@@@@@@@+@@++++++++++++",
"++++++++++++++++++++++++++++++++++++++++++++++++",
"++++++++++++++++++++++++++++++++++++++++++++++++",
"++++++++++++++++++++++++++++++++++++++++++++++++",
"+++++++............++++++++++++............+++++",
"++++++++............++++++++++++............++++",
"+++++++++............+#++++++++++............+++",
"++++++++++............++++++++++++............++",
"#++++++++++............++++++++++++............+",
"++++++++++++............++++++++++++............",
".+#++++++++++............+#++++++++++...........",
"..++++++++++++............+#++++++++++..........",
"...++++++++++++............++++++++++++.........",
"....++++++++++++............++++++++++++........",
".....+#++++++++++............+#++++++++++.......",
"......++++++++++++............++++++++++++......",
".......++++++++++++............++++++++++++.....",
"........+#++++++++++............++++++++++++....",
".........++++++++++++............+#++++++++++..."};
