/* XPM */
static char * stop_xpm[] = {
"48 48 4 1",
" 	c None",
".	c #000000",
"+	c #C60021",
"@	c #FFFFFF",
"              ....................              ",
"             .++++++++++++++++++++.             ",
"            .++@@@@@@@@@@@@@@@@@@++.            ",
"           .++@@++++++++++++++++@@++.           ",
"          .++@@++++++++++++++++++@@++.          ",
"         .++@@++++++++++++++++++++@@++.         ",
"        .++@@++++++++++++++++++++++@@++.        ",
"       .++@@++++++++++++++++++++++++@@++.       ",
"      .++@@++++++++++++++++++++++++++@@++.      ",
"     .++@@++++++++++++++++++++++++++++@@++.     ",
"    .++@@++++++++++++++++++++++++++++++@@++.    ",
"   .++@@++++++++++++++++++++++++++++++++@@++.   ",
"  .++@@++++++++++++++++++++++++++++++++++@@++.  ",
" .++@@++++++++++++++++++++++++++++++++++++@@++. ",
".++@@++++++++++++++++++++++++++++++++++++++@@++.",
".+@@++++++++++++++++++++++++++++++++++++++++@@+.",
".+@++++++++++++++++++++++++++++++++++++++++++@+.",
".+@++++++++++++++++++++++++++++++++++++++++++@+.",
".+@+++++@@@@@@@+@@@@@@@@++@@@@@@++@@@@@@@++++@+.",
".+@++++@@@@@@@@+@@@@@@@@++@@@@@@++@@@@@@@@+++@+.",
".+@++++@@++++++++++@@++++@@@++@@@+@@++++@@+++@+.",
".+@++++@@++++++++++@@++++@@++++@@+@@++++@@+++@+.",
".+@++++@@++++++++++@@++++@@++++@@+@@++++@@+++@+.",
".+@++++@@@@@@@+++++@@++++@@++++@@+@@++++@@+++@+.",
".+@+++++@@@@@@@++++@@++++@@++++@@+@@@@@@@@+++@+.",
".+@++++++++++@@++++@@++++@@++++@@+@@@@@@@++++@+.",
".+@++++++++++@@++++@@++++@@++++@@+@@+++++++++@+.",
".+@++++++++++@@++++@@++++@@@++@@@+@@+++++++++@+.",
".+@++++@@@@@@@@++++@@+++++@@@@@@++@@+++++++++@+.",
".+@++++@@@@@@@+++++@@+++++@@@@@@++@@+++++++++@+.",
".+@++++++++++++++++++++++++++++++++++++++++++@+.",
".+@++++++++++++++++++++++++++++++++++++++++++@+.",
".+@@++++++++++++++++++++++++++++++++++++++++@@+.",
".++@@++++++++++++++++++++++++++++++++++++++@@++.",
" .++@@++++++++++++++++++++++++++++++++++++@@++. ",
"  .++@@++++++++++++++++++++++++++++++++++@@++.  ",
"   .++@@++++++++++++++++++++++++++++++++@@++.   ",
"    .++@@++++++++++++++++++++++++++++++@@++.    ",
"     .++@@++++++++++++++++++++++++++++@@++.     ",
"      .++@@++++++++++++++++++++++++++@@++.      ",
"       .++@@++++++++++++++++++++++++@@++.       ",
"        .++@@++++++++++++++++++++++@@++.        ",
"         .++@@++++++++++++++++++++@@++.         ",
"          .++@@++++++++++++++++++@@++.          ",
"           .++@@++++++++++++++++@@++.           ",
"            .++@@@@@@@@@@@@@@@@@@@+.            ",
"             .++++++++++++++++++++.             ",
"              ....................              "};
